<svg width="163" height="47" viewBox="0 0 163 47" fill="none" xmlns="http://www.w3.org/2000/svg">
<g clip-path="url(#clip0_296_9776)">
<path d="M162.489 19.7887C163.451 20.8085 163.935 22.1911 163.935 23.9429V33.1585H160.368V24.9877C160.368 23.9554 160.077 23.1421 159.494 22.5477C158.911 21.9534 158.123 21.6531 157.125 21.6531C155.946 21.6719 155.01 22.0785 154.321 22.8668C153.633 23.6551 153.286 24.6686 153.286 25.9011V33.1585H149.744V12.6815H153.286V21.2089C154.284 19.2757 156.039 18.2934 158.545 18.2559C160.207 18.2559 161.528 18.7627 162.489 19.7887ZM141.868 21.4279C140.689 21.4279 139.728 21.8345 138.996 22.6416C138.264 23.4549 137.892 24.4997 137.892 25.7885C137.892 27.1149 138.264 28.1784 138.996 28.9918C139.734 29.7988 140.689 30.2055 141.874 30.2055C143.617 30.2055 144.925 29.6237 145.8 28.4662L148.008 30.3181C147.357 31.2753 146.463 32.0386 145.422 32.5266C144.349 33.0396 143.108 33.2961 141.688 33.2961C140.255 33.2961 138.978 32.9833 137.861 32.3577C136.764 31.7508 135.858 30.8311 135.263 29.7238C134.642 28.5914 134.332 27.29 134.332 25.8198C134.332 24.3308 134.649 23.0107 135.275 21.8721C135.877 20.7522 136.788 19.8387 137.892 19.2256C139.009 18.6 140.292 18.2872 141.75 18.2872C143.077 18.2872 144.262 18.5187 145.304 18.9879C146.346 19.4571 147.195 20.1265 147.853 20.9899L145.701 23.0608C144.702 21.9722 143.431 21.4279 141.868 21.4279ZM132.069 18.3935V33.1585H128.527V30.8124C128.025 31.6007 127.324 32.2451 126.499 32.6768C125.674 33.1084 124.725 33.3274 123.652 33.3274C122.269 33.3274 121.06 33.0083 120.012 32.3765C118.97 31.7446 118.151 30.8499 117.574 29.6987C116.998 28.5476 116.706 27.2275 116.706 25.7385C116.706 24.2682 116.998 22.9669 117.581 21.8345C118.157 20.7021 118.976 19.8262 120.018 19.2006C121.06 18.575 122.263 18.2621 123.628 18.2621C124.701 18.2621 125.656 18.4811 126.487 18.9128C127.318 19.3445 128.025 19.9826 128.527 20.7772V18.406L132.069 18.3935ZM127.243 29.2233C127.988 28.4975 128.416 27.534 128.527 26.3391V25.2943C128.416 24.0931 127.994 23.1358 127.25 22.4101C126.505 21.6844 125.563 21.3215 124.415 21.3215C123.2 21.3215 122.207 21.7407 121.445 22.579C120.682 23.4174 120.291 24.4997 120.272 25.8198C120.291 27.1462 120.682 28.2222 121.445 29.0606C122.207 29.8989 123.2 30.3181 124.415 30.3181C125.556 30.3181 126.499 29.9552 127.243 29.2233ZM113.14 20.2955C114.312 21.6406 114.895 23.5237 114.895 25.9512C114.895 26.4267 114.883 26.7895 114.87 27.0273H104.11C104.346 28.0783 104.829 28.8979 105.567 29.4985C106.299 30.0991 107.205 30.3932 108.278 30.3932C109.009 30.3932 109.741 30.2493 110.417 29.9615C111.093 29.6862 111.701 29.267 112.204 28.7353L114.108 30.7498C113.369 31.5694 112.464 32.2075 111.447 32.6267C110.405 33.0709 109.245 33.2899 107.974 33.2899C106.485 33.2899 105.17 32.9771 104.035 32.3514C102.925 31.7508 102.007 30.8311 101.406 29.7175C100.786 28.5851 100.482 27.2838 100.482 25.8136C100.482 24.3433 100.792 23.0357 101.424 21.8971C102.032 20.7772 102.944 19.8513 104.054 19.2319C105.183 18.5937 106.46 18.2809 107.893 18.2809C110.219 18.2809 111.968 18.9566 113.14 20.2955ZM111.658 24.6311C111.621 23.5425 111.267 22.6791 110.597 22.0347C109.927 21.3903 109.034 21.065 107.924 21.065C106.888 21.065 106.02 21.3841 105.319 22.016C104.618 22.6478 104.191 23.5175 104.023 24.6248H111.658V24.6311ZM96.6302 19.0442C97.4737 18.5374 98.4598 18.2747 99.5886 18.2559V21.7344C98.0815 21.6406 96.8783 21.9972 95.979 22.798C95.0797 23.5988 94.627 24.6812 94.627 26.0388V33.1585H91.0856V18.3935H94.627V21.2339C95.1232 20.2767 95.7868 19.5447 96.6302 19.0442ZM88.4312 32.2451C87.2714 32.9645 86.0496 33.3212 84.7782 33.3212C83.5254 33.3212 82.4958 32.9458 81.702 32.2013C80.9019 31.4568 80.505 30.3557 80.505 28.9042V14.94L84.0215 14.5146V18.9941H88.1893V21.6155H84.0215V28.2723C84.0215 28.9542 84.1456 29.436 84.3999 29.7175C84.6541 30.0053 85.0325 30.1429 85.541 30.1429C86.0868 30.1429 86.7752 29.9427 87.6125 29.5361L88.4312 32.2451ZM73.9433 18.3935H77.4598V26.6707C77.4598 31.5006 74.1293 33.2961 70.7492 33.2961C67.3691 33.2961 64.0448 31.5006 64.0448 26.6707V18.3935H67.5614V26.7958C67.5614 28.6477 68.9258 30.1492 70.7554 30.1492C72.585 30.1492 73.9494 28.6477 73.9494 26.7958L73.9433 18.3935ZM56.7575 14.89C58.2769 15.7221 59.5422 16.9546 60.4228 18.4498C61.3159 19.9576 61.7563 21.6343 61.7563 23.4737C61.7563 25.313 61.3097 26.9897 60.4228 28.51C59.5422 30.0178 58.2769 31.2628 56.7575 32.1137C55.2007 32.9958 53.4828 33.44 51.5912 33.44C49.6996 33.44 47.9816 32.9958 46.4311 32.1137C44.9116 31.2628 43.6464 30.0178 42.7657 28.51C41.8788 26.9897 41.4323 25.313 41.4323 23.4737C41.4323 21.6343 41.8788 19.9576 42.7657 18.4498C43.6464 16.9483 44.9116 15.7221 46.4311 14.89C47.9816 14.0266 49.7058 13.5949 51.5912 13.5949C53.4828 13.5887 55.2069 14.0203 56.7575 14.89ZM48.4095 17.7742C47.4234 18.3372 46.6047 19.1568 46.0404 20.1453C45.4574 21.1526 45.1659 22.2599 45.1659 23.4737C45.1659 24.6874 45.4636 25.801 46.0528 26.8146C46.6233 27.8093 47.442 28.6352 48.4219 29.217C49.4143 29.8051 50.4872 30.0991 51.6532 30.0991C52.7758 30.1054 53.8797 29.7988 54.841 29.217C55.8147 28.6352 56.6148 27.8093 57.173 26.8146C57.7498 25.7948 58.0413 24.6436 58.0289 23.4737C58.0289 22.2599 57.7436 21.1526 57.173 20.1453C56.621 19.1631 55.8147 18.3435 54.841 17.7742C53.8735 17.1986 52.7758 16.8983 51.6532 16.9045C50.512 16.8983 49.3956 17.1986 48.4095 17.7742ZM14.745 5.31152C19.7624 5.31152 27.3413 6.86935 30.864 10.4417C31.7571 11.3489 32.9293 13.1194 32.9293 15.7221C32.9293 20.3393 29.2515 27.4277 25.1954 31.5444C23.0991 33.6715 19.7624 36.4493 15.2721 36.4493C10.8811 36.4493 7.53201 33.4338 6.5645 32.4453C2.84328 28.679 0.182617 22.9607 0.182617 17.6365C0.182617 14.2706 1.13153 11.3301 3.54411 8.88389C5.77684 6.62535 9.62829 5.31152 14.745 5.31152ZM20.9532 23.7364C22.6463 22.0222 23.1053 19.9076 23.1053 18.7439C23.1053 17.8993 22.8882 16.6668 21.8463 15.6095C20.2524 13.9891 18.4786 13.5324 16.556 13.5324C14.1186 13.5324 12.4812 14.3144 11.3897 15.4155C10.5338 16.2914 9.79575 17.6177 9.79575 19.5134C9.79575 21.4028 10.7943 23.2297 11.8734 24.3308C12.8782 25.3443 14.4535 26.0951 16.035 26.0951C17.6227 26.0951 19.26 25.4507 20.9532 23.7364Z" fill="#A05BF8"/>
</g>
<defs>
<clipPath id="clip0_296_9776">
<rect width="164.447" height="46.7067" fill="white" transform="translate(0.182617)"/>
</clipPath>
</defs>
</svg>
